<?xml version="1.0" encoding="utf-8" ?>
<svg xmlns="http://www.w3.org/2000/svg" xmlns:xlink="http://www.w3.org/1999/xlink" width="1024" height="1024">
	<path fill="white" d="M338.83 611.318C339.301 611.328 340.321 611.269 340.803 611.444C342.89 612.201 342.945 614.738 343.227 616.589C343.779 620.207 345.179 623.7 346.21 627.207C351.097 643.833 356.469 656.278 365.311 671.171C362.948 669.46 361.076 666.221 359.484 663.816C349.103 648.143 342.813 629.571 338.83 611.318Z"/>
	<path fill="white" d="M678.79 623.617L680.149 619.436C681.048 616.711 682.225 611.738 684.91 610.382C684.978 610.508 685.066 610.626 685.115 610.761C686.125 613.544 683.117 619.31 682.027 622.084C677.119 636.509 670.863 649.91 663.543 663.259C661.297 667.354 659.145 671.643 656.403 675.425L655.836 675.314C658.196 667.975 663.216 660.623 666.411 653.515C670.798 643.752 674.051 633.177 678.79 623.617Z"/>
	<path fill="white" d="M362.547 442.576C364.239 442.476 365.885 442.379 367.51 442.949Q368.036 443.132 368.539 443.369Q369.042 443.607 369.518 443.896Q369.994 444.185 370.436 444.522Q370.879 444.86 371.283 445.242Q371.687 445.625 372.049 446.047Q372.411 446.47 372.727 446.929Q373.042 447.387 373.307 447.876Q373.573 448.366 373.785 448.88C375.041 451.922 375.031 455.432 373.582 458.409C372.068 461.521 369.826 462.944 366.669 464.086C365.069 464.091 363.39 464.085 361.832 463.675C359.044 462.941 356.448 461.014 355.12 458.436C353.831 455.933 353.681 453.014 354.564 450.352C355.927 446.245 358.837 444.373 362.547 442.576Z"/>
	<path fill="white" d="M227.938 433.205C256.863 432.197 287.848 446.755 315.897 441.894C320.659 441.069 325.054 439.363 329.536 437.604C331.934 441.816 334.469 447.427 333.611 452.372C333.321 454.044 332.541 455.496 331.096 456.437C322.727 461.892 286.604 457.23 276.482 455.512C273.796 464.99 270.018 474.203 266.788 483.511C257.734 509.609 248.023 535.647 240.072 562.098C234.37 561.967 228.649 562.021 222.945 561.986C224.09 557.305 225.904 552.702 227.464 548.141L250.08 484.003C253.734 473.547 257.767 463.079 260.851 452.451C253.357 451.169 245.738 449.663 238.15 449.102C230.054 448.503 220.339 448.992 213.998 454.72C211.055 457.378 209.154 461.059 209.004 465.051C208.888 468.125 209.859 471.144 212.003 473.388C216.044 477.618 222.193 478.034 227.671 478.148Q225.055 486.143 222.098 494.019C214.69 493.845 208.161 492.492 202.177 487.82Q201.664 487.426 201.171 487.007Q200.679 486.588 200.208 486.144Q199.737 485.7 199.29 485.233Q198.843 484.766 198.419 484.276Q197.996 483.787 197.599 483.277Q197.201 482.767 196.83 482.237Q196.458 481.707 196.115 481.159Q195.771 480.611 195.455 480.047Q195.14 479.482 194.853 478.902Q194.567 478.322 194.31 477.728Q194.054 477.134 193.828 476.528Q193.602 475.922 193.407 475.305Q193.212 474.689 193.048 474.063Q192.885 473.437 192.754 472.803Q192.622 472.17 192.523 471.531Q192.424 470.891 192.358 470.248C191.366 461.475 193.62 452.379 199.318 445.542C206.469 436.96 217.29 434.221 227.938 433.205Z"/>
	<path fill="white" d="M510.904 206.246C512.457 207.104 513.754 209.465 514.869 210.923C521.904 220.126 528.897 229.236 536.982 237.558C550.938 251.925 566.193 265.029 580.19 279.371C619.794 319.951 654.814 364.441 680.455 415.2C687.429 429.006 693.968 443.226 698.82 457.93L686.319 457.932C655.734 376.09 597.91 311.188 535.182 252.25C526.892 244.716 517.904 235.271 511.532 226.066C493.212 247.169 472.678 265.934 453.262 285.987C414.699 325.816 375.619 375.499 353.023 426.492Q346.821 426.164 340.61 426.102C366.44 366.725 408.388 315.849 453.086 269.766C474.134 248.065 493.382 231.424 510.904 206.246Z"/>
	<path fill="white" d="M450.819 604.577C453.366 604.441 455.982 604.21 458.531 604.304C469.932 604.723 499.118 634.132 507.478 643.318C506.97 631.043 507.203 618.645 507.108 606.355C510.41 606.301 513.721 606.434 517.023 606.518Q516.872 624.824 517.122 643.13C528.828 630.118 542.444 616.816 557.961 608.306C561.626 608.745 565.068 609.383 568.782 609.124C563.958 612.791 558.534 615.814 553.546 619.286C540.906 628.086 526.07 640.366 516.976 652.725L517.516 711.438C521.618 706.864 525.387 702.01 529.59 697.516C556.822 668.402 590.837 645.248 626.064 626.968C640.095 619.687 654.989 611.856 671.075 611.327C657.906 617.44 645.004 624.483 632.261 631.44C588.326 655.426 548.456 682.479 517.682 722.624C516.627 739.859 517.024 757.376 516.993 774.646C523.537 768.246 528.757 760.477 535.38 754.008C568.49 721.661 606.319 700.778 651.936 692.066C639.339 699.073 624.731 702.99 611.598 709.1C580.098 723.758 553.214 744.234 529.883 769.857C525.56 774.605 520.267 779.686 516.916 785.163L517.101 803.111C525.015 799.517 533.122 796.346 541.082 792.852C599.468 767.217 651.633 720.408 680.512 663.166C689.089 646.166 694.55 628.267 701.463 610.612C705.702 610.476 709.96 610.533 714.202 610.51C708.48 628.076 701.989 645.933 693.858 662.529Q691.778 666.684 689.571 670.772Q687.364 674.861 685.032 678.879Q682.7 682.898 680.245 686.842Q677.79 690.787 675.215 694.654Q672.639 698.521 669.946 702.307Q667.252 706.093 664.443 709.794Q661.635 713.495 658.713 717.107Q655.791 720.72 652.759 724.241Q649.728 727.761 646.589 731.187Q643.45 734.612 640.207 737.94Q636.964 741.267 633.62 744.492Q630.276 747.718 626.834 750.839Q623.392 753.959 619.855 756.973Q616.319 759.986 612.691 762.889Q609.063 765.792 605.347 768.581Q601.632 771.37 597.832 774.044C577.079 788.53 555.022 799.562 531.696 809.181C526.237 811.432 520.474 814.271 514.731 815.61C502.081 818.558 457.083 792.777 445.353 785.701C382.633 747.867 330.599 687.449 312.778 615.326C316.398 614.625 320 613.952 323.656 613.468C327.321 622.946 329.665 632.908 333.481 642.404C359.105 706.162 410.29 754.501 470.321 786.312C482.511 792.772 495.162 798.149 507.844 803.557Q507.308 797.469 505.613 791.598C501.862 779.02 493.589 768.436 484.59 759.134C450.495 723.89 413.538 713.477 371.755 690.981C372.254 691.068 372.753 691.152 373.25 691.253C385.384 693.721 397.308 698.175 408.851 702.567C438.543 713.865 467.97 730.085 489.435 754.036C496.064 761.433 501.585 769.482 506.998 777.776C507.209 767.077 506.975 756.332 506.961 745.628C506.952 739.211 507.733 731.561 506.465 725.318C505.213 719.158 499.255 712.848 495.303 708.128C474.056 682.757 445.167 662.14 417.024 645.094C397.165 633.066 376.864 622.126 357.468 609.305C395.789 618.454 451.947 656.762 480.371 683.634Q488.424 691.274 495.651 699.699C499.212 703.857 502.552 708.311 506.425 712.182L506.852 712.602C507.574 692.914 507.604 672.711 507.018 653.019C497.171 637.323 466.36 615.399 450.819 604.577Z"/>
	<path fill="white" d="M511.535 243.75C515.673 250.109 515.027 311.361 515.588 323.368C522.102 312.704 528.524 302.37 537.004 293.105C531.637 305.068 518.271 326.374 515.829 337.524C513.814 346.726 515.362 369.5 515.574 380.023C531.428 354.585 549.564 333.273 572.53 314.012C568.079 309.172 563.131 304.256 559.48 298.78L559.908 298.712C566.692 305.789 573.911 312.51 580.547 319.714C611.617 353.444 642.647 394.068 660.281 436.713C661.848 440.505 667.367 452.958 667.295 456.487C667.292 456.644 667.251 456.798 667.236 456.954C667.232 456.997 667.237 457.04 667.238 457.082C665.104 454.89 660.566 442.305 658.817 438.464C653.868 427.595 647.747 417.208 641.788 406.87C636.206 409.509 630.93 412.973 625.673 416.207Q611.077 425.194 596.921 434.86C583.747 443.907 571.55 452.888 556.858 459.371Q561.313 454.928 565.946 450.669Q570.578 446.41 575.379 442.343Q580.181 438.276 585.143 434.407Q590.106 430.538 595.221 426.874Q600.337 423.21 605.597 419.757Q610.857 416.304 616.254 413.067Q621.65 409.83 627.173 406.815Q632.696 403.8 638.337 401.012C629.631 387.326 619.774 374.275 610.491 360.966C603.209 366.577 594.71 370.873 587.115 376.138C565.563 391.079 545.37 409.223 529.088 429.818C520.93 440.957 516.171 445.606 516.117 460.043L506.977 460.136C507.075 457.446 507.365 454.43 506.911 451.786C506.102 447.062 501.775 441.603 499.091 437.698C477.633 406.477 446.061 382.012 414.746 361.306C405.49 371.012 394.232 389.666 387.534 401.461C416.577 413.265 443.222 435.191 464.604 457.759C448.602 449.433 434.064 438.335 419.167 428.203Q402.375 416.994 384.842 406.985C379.132 415.536 374.621 424.783 367.369 432.211C373.594 420.616 379.096 408.722 385.774 397.359C402.523 368.859 423.264 343.374 445.204 318.759C449.111 314.375 461.387 300.328 465.403 297.555L465.485 297.848C461.132 302.731 456.721 307.788 452.863 313.069C473.841 333.02 492.888 355.263 507.522 380.321Q507.613 367.432 507.952 354.546C508.05 349.609 508.483 344.409 507.807 339.506C506.34 328.877 492.029 304.869 486.869 294.084C494.982 302.11 502.596 312.87 508.429 322.661Q507.993 300.361 508.721 278.068C509.031 266.764 508.727 254.747 511.535 243.75ZM574.447 318.869C555.888 337.553 538.471 356.27 524.653 378.848C521.466 384.054 517.921 389.733 516.246 395.642C514.787 400.789 515.047 406.147 515.065 411.44Q515.018 424.556 515.37 437.668C519.565 431.55 523.713 425.302 528.402 419.546Q534.445 412.342 540.991 405.591Q547.537 398.84 554.551 392.577Q561.565 386.314 569.012 380.572Q576.458 374.83 584.298 369.638C591.458 364.826 599.329 360.782 606.311 355.793C597.864 345.953 589.69 335.904 581.109 326.177C579.126 323.929 576.826 320.591 574.447 318.869ZM449.92 318.263C439.249 330.13 427.958 342.281 418.706 355.292C445.99 373.31 474.809 394.572 494.924 420.67C499.504 426.17 503.84 431.769 507.661 437.833Q507.518 426.333 507.62 414.832C507.677 408.963 508.43 402.277 507.166 396.539C506.232 392.297 503.365 387.902 501.226 384.124C487.754 360.324 469.959 338.481 450.894 318.952C450.426 318.472 450.588 318.63 449.92 318.263Z"/>
	<path fill="white" d="M757.302 432.25C758.76 432.171 760.477 431.815 761.774 432.594C760.595 441.125 756.408 451.516 753.816 459.97Q745.372 487.507 737.238 515.137C735.567 520.998 732.536 528.181 732.923 534.27C733.029 535.941 733.541 537.513 734.881 538.601C735.657 539.231 736.833 539.383 737.811 539.254C743.645 538.483 751.372 531.128 753.266 525.609C754.497 522.022 754.341 517.534 754.821 513.762C756.061 504.019 760.61 492.91 766.986 485.377C772.414 478.965 779.723 474.486 788.245 473.877C794.559 473.426 801.139 474.795 805.912 479.188C809.614 482.595 811.43 487.18 811.437 492.179C811.447 499.793 807.471 506.808 802.207 512.065C792.883 521.377 782.493 523.191 769.833 523.227C769.812 527.302 770.13 531.221 772.627 534.641C775.005 537.897 778.645 539.075 782.517 539.519C794.714 540.918 806.79 531.551 813.52 522.154C815.702 519.108 817.548 514.674 820.518 512.402C821.613 511.565 822.469 511.309 823.85 511.452C825.582 512.335 826.421 513.352 827.323 515.076C831.762 523.557 830.413 534.233 827.518 542.98C822.194 559.06 810.773 571.136 795.482 578.141C770.709 589.49 742.142 592.07 715.279 594.137C654.895 598.783 594.347 595.862 533.951 592.881C516.163 592.003 498.399 590.772 480.596 590.154C445.459 588.933 409.668 588.821 374.627 591.962C304.684 598.232 255.645 613.895 192.949 645.109C216.329 625.598 239.568 607.745 267.564 595.296C352.235 557.645 457.389 568.068 547.826 573.682Q602.216 577.021 656.693 578.324C693.613 579.203 743.203 579.78 778.343 568.772C797.298 562.834 804.272 557.119 813.285 539.751Q809.733 543.296 805.594 546.135C796.53 552.327 785.901 555.621 774.954 553.339C766.955 551.671 761.446 547.142 757.086 540.479C752.941 546.204 747.483 550.814 740.579 552.796C735.674 554.205 729.863 554.347 725.38 551.599C720.931 548.872 718.951 544.363 717.722 539.518C714.134 545.587 709.154 551.326 702.09 553.268C698.011 554.389 693.298 554.196 689.579 552.039C685.501 549.674 683.36 545.766 682.253 541.32C678.755 545.367 674.87 548.744 669.996 551.029C664.961 553.39 658.747 554.617 653.419 552.482C648.376 550.462 646.196 546.522 644.258 541.786C641.219 546.219 638.041 550.442 632.951 552.685C629.423 554.239 625.445 554.43 621.853 552.962C616.647 550.835 613.927 546.258 611.836 541.333C606.797 546.522 601.39 551.027 594.214 552.844C588.963 554.174 582.356 553.942 577.706 550.89C566.906 543.801 573.877 528.365 576.824 518.962L582.434 500.601C583.157 498.193 584.833 493.999 583.923 491.55C583.453 490.284 582.926 489.764 581.669 489.268C580.412 488.773 578.476 489.216 577.294 489.732C569.666 493.061 559.207 510.417 556.37 518.388C552.811 529.861 549.959 541.523 546.493 553.02L530.595 552.914C533.556 541.131 537.073 529.406 540.62 517.788C542.609 511.274 545.029 504.678 546.474 498.029C546.967 495.76 547.615 492.77 547.049 490.498C546.723 489.19 546.296 488.757 545.211 488.026C543.478 487.838 542.236 488.302 540.72 489.101C535.13 492.047 524.434 503.022 521.564 508.56C519.222 513.077 518.139 519.186 516.763 524.098C514.057 533.758 511.424 543.431 508.336 552.979C503.114 552.743 497.831 552.891 492.601 552.877C493.517 548.962 494.612 545.109 495.722 541.245C490.655 545.274 486.421 549.2 480.233 551.516C472.487 554.416 462.428 554.877 454.883 551.207C447.84 547.781 442.971 541.115 440.525 533.831C436.083 538.028 431.333 541.529 425.92 544.391C416.531 549.356 399.5 556.109 388.834 552.452C383.958 550.78 381.615 547.374 379.553 542.917C378.448 546.303 377.47 549.741 376.401 553.14C372.415 552.964 366.195 554.562 362.804 552.492C362.122 551.057 362.249 550.667 362.403 549.131C361.311 548.729 355.12 552.026 353.496 552.512C349.088 553.831 343.544 553.928 339.481 551.504C335.996 549.424 333.927 545.625 332.996 541.799C329.679 545.194 325.884 548.215 321.605 550.304C316.197 552.945 309.759 554.048 303.983 551.923C300.181 550.524 297.22 547.797 295.573 544.092C290.026 531.61 300.698 512.75 305.412 500.974C302.018 499.281 298.442 497.869 294.96 496.36C293.193 501.447 290.734 506.413 288.571 511.348L277.323 537.218C274.639 535.282 272.469 533.213 270.223 530.805C275.703 517.997 281.263 505.205 286.037 492.112C282.179 488.714 278.204 484.756 278.014 479.258Q277.995 478.676 278.035 478.096Q278.074 477.515 278.173 476.941Q278.272 476.368 278.428 475.807Q278.585 475.247 278.797 474.705Q279.01 474.163 279.276 473.646Q279.543 473.128 279.861 472.641Q280.179 472.153 280.544 471.7Q280.91 471.247 281.32 470.834C283.214 468.941 285.755 467.716 288.46 467.731C290.763 467.744 292.896 468.647 294.449 470.357C296.912 473.069 296.7 476.148 296.452 479.531C305.701 483.447 315.429 487.569 323.801 493.147C319.719 502.342 315.958 511.822 312.353 521.215C310.968 524.823 307.666 532.642 309.775 536.258C310.331 537.212 311.238 537.842 312.274 538.176C314.801 538.99 317.418 538.302 319.689 537.086C325.352 534.053 331.064 527.314 334.165 521.788C338.456 514.143 340.584 503.851 343.106 495.493C345.273 488.309 347.766 481.259 349.88 474.057C355.154 473.469 360.639 473.857 365.937 474.005C361.607 486.201 357.846 498.559 353.918 510.887C351.813 517.493 348.827 524.697 347.768 531.546C347.523 533.133 347.42 535.149 348.168 536.633C348.743 537.774 349.448 538.508 350.737 538.787C353.139 539.307 356.001 538.136 358.072 537.029C362.021 534.918 365.723 531.983 368.061 528.138C373.555 519.104 376.067 506.733 379.336 496.631Q389.548 465.995 398.985 435.111Q406.762 435.278 414.541 435.197C411.41 448.582 406.867 462.589 401.759 475.339C403.494 474.829 405.238 474.31 407.002 473.908C412.182 472.727 418.021 472.934 422.536 475.995C427.601 479.428 430.352 485.68 431.287 491.567C433.714 506.847 427.058 523.691 418.147 535.807C426.127 532.39 434.191 527.311 438.536 519.51C440.576 515.847 441.305 511.717 442.38 507.71C445.442 496.288 450.225 485.658 460.319 478.816C466.64 474.531 474.714 472.052 482.328 473.653C487.138 474.664 491.17 477.443 493.733 481.651C496.693 486.509 497.131 492.261 495.727 497.698C493.368 506.836 486.882 514.122 478.815 518.759C472.472 522.406 464.278 524.668 457.049 523.145C455.826 522.887 455.339 522.749 454.253 523.475C454.012 525.712 454.994 528.622 455.923 530.643C457.586 534.263 460.237 537.056 464.071 538.334C470.051 540.327 477.092 538.866 482.612 536.093C487.115 533.831 491.06 530.546 494.612 527.007C509.833 511.841 509.928 494.313 516.549 475.115L516.754 474.532C521.451 474.371 526.181 474.502 530.882 474.522C529.992 478.795 528.957 483.045 527.98 487.3C534.087 480.918 540.714 474.483 549.92 473.307C553.344 472.87 556.959 473.331 559.644 475.67C563.379 478.924 563.792 483.762 564.266 488.351C567.343 484.007 570.52 479.937 575.219 477.236C580.905 473.967 588.092 471.963 594.534 473.935C615.004 480.203 583.063 528.405 589.287 537.893C589.968 538.932 591.015 539.253 592.194 539.341C599.045 539.853 605.067 533.123 609.446 528.769C610.904 520.631 611.935 513.133 614.982 505.347C619.847 492.915 628.376 482.242 640.829 476.838C649.066 473.263 661.481 472.133 669.877 475.712C672.643 476.892 674.492 478.852 674.783 481.929C675.18 486.146 672.504 491.323 671.161 495.311C668.751 502.471 658.077 531.533 660.82 537.099C661.345 538.162 662.116 538.907 663.315 539.143C665.227 539.521 667.943 537.865 669.475 536.872C683.617 527.708 682.377 513.921 688.682 500.329Q689.784 497.93 691.13 495.66Q692.476 493.389 694.052 491.271Q695.627 489.153 697.415 487.211Q699.203 485.269 701.184 483.524C711.089 474.914 721.731 473.161 734.465 474.132C738.101 460.159 743.025 446.128 747.912 432.541L757.302 432.25ZM406.68 487.469C400.405 490.039 396.3 494.075 393.627 500.327C389.612 509.719 387.085 520.382 383.858 530.11C385.696 533.447 386.644 536.881 387.991 540.41L389.624 536.867C390.381 535.169 390.639 533.751 392.585 533.074C394.305 532.475 396.248 532.521 398.048 532.411C404.239 532.033 407.304 528.184 410.092 523.006C414.089 515.582 417.96 503.181 415.601 494.764C414.95 492.441 413.048 489.233 410.862 488.133C409.701 487.548 407.963 487.526 406.68 487.469ZM724.369 487.071C715.585 489.063 709.805 494.409 705.119 501.908C700.287 509.639 694.271 523.566 696.237 532.85C696.903 535.997 698.59 537.948 701.284 539.597C701.42 539.68 701.557 539.76 701.693 539.841C706.244 539.278 709.243 536.707 712.034 533.167C721.666 520.949 724.543 501.545 729.598 486.866C727.866 486.922 726.092 486.901 724.369 487.071ZM657.333 486.689C648.655 487.442 641.728 491.367 636.155 498.014C629.533 505.913 623.47 520.072 624.532 530.523C624.773 532.894 625.66 534.999 626.832 537.055C628.993 538.348 631.088 539.06 633.615 538.405C638.152 537.229 641.424 532.641 643.54 528.725C645.961 524.245 657.902 489.328 657.333 486.689ZM474.763 487.053C467.722 489.309 463.185 494.084 459.901 500.554Q458.582 503.186 457.602 505.962Q456.622 508.738 455.996 511.615C458.632 511.211 461.29 510.862 463.903 510.335C470.493 508.79 476.473 505.285 480.132 499.423C481.542 497.165 483.374 493.409 482.486 490.67C481.939 488.986 480.406 488.1 478.849 487.511C477.536 487.014 476.146 487.021 474.763 487.053ZM787.1 487.473C779.544 490.832 775.729 496.878 772.848 504.31C771.881 506.804 771.187 509.335 770.546 511.928C773.498 511.637 776.462 511.431 779.342 510.691C785.647 508.658 790.909 505.753 793.963 499.529C795.055 497.305 796.405 493.687 795.513 491.184C794.941 489.575 793.855 488.632 792.322 487.982C790.582 487.243 788.941 487.321 787.1 487.473Z"/>
</svg>
